<svg width="155" height="35" viewBox="0 0 155 35" fill="none" xmlns="http://www.w3.org/2000/svg">
<path d="M18.8764 13.9648V17.7758C18.8764 17.9332 18.8764 18.0837 18.8627 18.2411C18.7874 19.8558 18.2879 21.3679 17.4738 22.6678C17.1795 23.1399 16.8443 23.5847 16.4748 23.9883C15.9001 24.6178 15.2364 25.172 14.518 25.6236C13.2728 26.4036 11.836 26.8893 10.2897 26.9988C10.2213 26.9988 10.1597 27.0125 10.0913 27.0125C9.98179 27.0125 9.87232 27.0262 9.76285 27.0262H9.61917C9.43443 27.0262 9.25654 27.0262 9.07181 27.0125C7.85394 26.9167 6.71817 26.4651 5.78766 25.7809C9.6739 27.0946 14.4564 24.741 14.4907 18.1111V18.029C14.4907 17.9469 14.5043 17.8648 14.5043 17.7758V13.9648H18.8627H18.8764Z" fill="url(#paint0_linear_197_4109)"/>
<path d="M14.5043 18.1045C14.4633 24.7344 9.68075 27.0948 5.80135 25.7743C4.19349 24.5907 3.14667 22.6886 3.14667 20.5471C3.14667 18.7271 3.89244 17.085 5.09663 15.9082C4.864 16.4761 4.73401 17.1124 4.73401 17.7692C4.73401 20.4718 6.92344 22.6612 9.62602 22.6612C12.3286 22.6612 14.3333 20.6565 14.5043 18.1045Z" fill="url(#paint1_linear_197_4109)"/>
<path d="M14.518 8.5188C7.55285 8.5188 5.4592 14.1155 5.4592 14.1155C3.35188 15.4839 1.95611 17.8513 1.95611 20.547C1.95611 21.7854 2.25032 22.9485 2.77031 23.9885C2.394 23.578 2.06558 23.1401 1.77138 22.668C0.881923 21.2449 0.368774 19.5754 0.368774 17.776C0.368774 16.8318 0.512456 15.9287 0.779293 15.0666C1.01192 14.2866 1.35402 13.5613 1.77822 12.884C2.524 11.6866 3.54345 10.674 4.7408 9.9214C6.16393 9.03195 7.83337 8.52564 9.63281 8.52564H14.5317L14.518 8.5188Z" fill="url(#paint2_linear_197_4109)"/>
<path d="M21.2915 8.51881C19.4852 8.51881 16.4953 9.58615 15.8384 12.8703H12.6638H9.46172C7.9907 12.9045 6.61546 13.3492 5.45917 14.1087C5.45917 14.1087 7.55281 8.51196 14.5179 8.51196H21.2915V8.51881Z" fill="url(#paint3_linear_197_4109)"/>
<path d="M30.0082 12.8771H15.8453C16.5022 9.59298 19.4921 8.52563 21.2984 8.52563H25.6567C28.0583 8.52563 30.0082 10.4756 30.0082 12.8771Z" fill="url(#paint4_linear_197_4109)"/>
<path d="M29.5703 13.9648L28.4346 15.0664L20.5663 22.6542C20.8194 22.3736 25.4309 17.1943 23.9873 14.0675C24.2746 13.9991 24.5688 13.9648 24.8699 13.9648H29.5703Z" fill="url(#paint5_linear_197_4109)"/>
<path d="M20.5526 22.6612H24.2062C22.9473 26.6842 15.5101 26.9921 14.2443 27.0195C14.3196 26.9853 14.388 26.9442 14.4633 26.9032C14.5317 26.8621 14.6001 26.8348 14.6617 26.7869C14.7301 26.7458 14.8054 26.7116 14.8738 26.6706C14.949 26.6295 15.0175 26.5885 15.0859 26.5474C15.5443 26.26 15.9753 25.9385 16.379 25.5827C16.5022 25.4801 16.6185 25.3706 16.7348 25.2611C16.8032 25.1927 16.8785 25.1243 16.9469 25.0559C17.0016 25.0011 17.0564 24.9464 17.1043 24.8848C17.159 24.8301 17.2137 24.7753 17.2685 24.7138C17.6858 24.2553 18.0621 23.7559 18.3906 23.2359C18.5548 22.9759 18.7053 22.7022 18.8421 22.4285C18.8832 22.3601 18.9174 22.2849 18.9516 22.2096C19.0063 22.0933 19.0611 21.977 19.109 21.8538C19.15 21.7649 19.1911 21.6759 19.2253 21.5733C19.2595 21.498 19.2937 21.4159 19.3211 21.3338C19.3348 21.3065 19.3416 21.2791 19.3553 21.2517C19.3826 21.1765 19.41 21.1012 19.4305 21.0259C19.4305 21.0122 19.4442 20.9917 19.4442 20.9849C19.4716 20.8959 19.499 20.8138 19.5263 20.7317C19.5469 20.6633 19.5674 20.5949 19.5811 20.5265C19.6084 20.4375 19.6358 20.3486 19.6563 20.2528C19.6563 20.2391 19.6563 20.2323 19.67 20.2117C19.6905 20.116 19.7179 20.0133 19.7384 19.9107C19.7658 19.8012 19.7863 19.6917 19.8068 19.5891C19.8205 19.4796 19.8479 19.3702 19.8547 19.2607C19.889 19.0486 19.9163 18.8365 19.93 18.6176V18.5833C19.9437 18.4876 19.9437 18.3849 19.9505 18.2823C19.9642 18.1113 19.9642 17.9265 19.9642 17.7555V17.1602L22.1536 15.046C22.6668 14.5466 23.3031 14.2113 23.9873 14.0471C25.431 17.1671 20.8126 22.3533 20.5663 22.6338L20.5526 22.6475V22.6612Z" fill="url(#paint6_linear_197_4109)"/>
<path d="M30.0082 22.6611C30.0082 23.8722 29.5156 24.96 28.7356 25.7469C27.9488 26.5337 26.8541 27.0195 25.6499 27.0195H14.2512C15.5169 26.9921 22.9542 26.6842 24.2131 22.6611H30.0082Z" fill="url(#paint7_linear_197_4109)"/>
<path d="M18.8763 4.35198V7.42403C18.0552 3.39411 14.5248 3.43516 14.5248 3.43516V0.000488281C15.729 0.000488281 16.8168 0.49311 17.6037 1.27994C18.3905 2.06676 18.8763 3.15464 18.8763 4.35198Z" fill="url(#paint8_linear_197_4109)"/>
<path d="M18.8763 7.43078H14.5248V3.44191C14.5248 3.44191 18.0552 3.40086 18.8763 7.43078Z" fill="url(#paint9_linear_197_4109)"/>
<path d="M44.9753 26.2566H38.1627C36.3305 26.2566 35.0919 24.9663 35.0919 23.0309V8.19287H44.9753C50.6525 8.19287 53.7233 12.7862 53.7233 17.2247C53.7233 21.6632 50.6525 26.2566 44.9753 26.2566ZM38.8595 11.3927V23.0309H44.8463C48.1494 23.0309 49.8009 20.1149 49.8009 17.2247C49.8009 14.3087 48.1494 11.3927 44.8463 11.3927H38.8595ZM72.8571 26.2566H60.4964C58.6642 26.2566 57.4256 24.9663 57.4256 23.0051V8.19287H72.6765V11.3927H61.1931V15.599H70.9734V18.8247H61.1931V23.0309H72.8571V26.2566ZM87.4535 26.5405L86.6277 26.6179C84.8471 26.7985 83.144 25.7921 82.3698 24.0889L75.1443 8.19287H79.1184L85.4407 22.0761L91.7888 8.19287H95.7628L87.4535 26.5405ZM98.3236 8.37351V8.19287H112.697V11.3927H101.214C99.4848 11.3927 98.3236 10.1799 98.3236 8.37351ZM97.7042 23.8309V23.7019L107.459 13.3023H111.252L101.756 23.8567H113.162V27.0566H100.775C98.9429 27.0566 97.7042 25.7663 97.7042 23.8309ZM132.248 26.2566H119.887C118.055 26.2566 116.816 24.9663 116.816 23.0051V8.19287H132.067V11.3927H120.584V15.599H130.364V18.8247H120.584V23.0309H132.248V26.2566ZM134.328 8.68317V8.19287H153.037V11.3927H145.321V26.2566H144.547C142.741 26.2566 141.554 24.9921 141.554 23.1083V11.3927H136.883C135.361 11.3927 134.328 10.3089 134.328 8.68317Z" fill="black"/>
<defs>
<linearGradient id="paint0_linear_197_4109" x1="23.9121" y1="13.8417" x2="3.20823" y2="26.9509" gradientUnits="userSpaceOnUse">
<stop stop-color="#002FC4"/>
<stop offset="0.16" stop-color="#0336C7"/>
<stop offset="0.39" stop-color="#0E4AD2"/>
<stop offset="0.67" stop-color="#206BE3"/>
<stop offset="0.99" stop-color="#3899FB"/>
<stop offset="1" stop-color="#3A9CFD"/>
</linearGradient>
<linearGradient id="paint1_linear_197_4109" x1="1.26512" y1="12.3162" x2="14.1417" y2="26.3969" gradientUnits="userSpaceOnUse">
<stop stop-color="#3A9CFD"/>
<stop offset="1" stop-color="#002FC4"/>
</linearGradient>
<linearGradient id="paint2_linear_197_4109" x1="11.8701" y1="3.401" x2="0.430354" y2="25.7195" gradientUnits="userSpaceOnUse">
<stop stop-color="#002FC4"/>
<stop offset="1" stop-color="#3A9CFD"/>
</linearGradient>
<linearGradient id="paint3_linear_197_4109" x1="19.451" y1="10.2909" x2="2.73606" y2="12.0493" gradientUnits="userSpaceOnUse">
<stop stop-color="#002FC4"/>
<stop offset="1" stop-color="#3A9CFD"/>
</linearGradient>
<linearGradient id="paint4_linear_197_4109" x1="32.1087" y1="10.9272" x2="9.05126" y2="10.4619" gradientUnits="userSpaceOnUse">
<stop stop-color="#002FC4"/>
<stop offset="1" stop-color="#3A9CFD"/>
</linearGradient>
<linearGradient id="paint5_linear_197_4109" x1="29.0503" y1="12.6375" x2="17.2069" y2="22.6405" gradientUnits="userSpaceOnUse">
<stop stop-color="#002FC4"/>
<stop offset="0.19" stop-color="#0D49D1"/>
<stop offset="0.82" stop-color="#3A9CFD"/>
</linearGradient>
<linearGradient id="paint6_linear_197_4109" x1="25.6294" y1="19.0897" x2="13.7996" y2="22.3533" gradientUnits="userSpaceOnUse">
<stop stop-color="#002FC4"/>
<stop offset="1" stop-color="#3A9CFD"/>
</linearGradient>
<linearGradient id="paint7_linear_197_4109" x1="30.3503" y1="24.8437" x2="18.7874" y2="24.8437" gradientUnits="userSpaceOnUse">
<stop stop-color="#3A9CFD"/>
<stop offset="0.22" stop-color="#3898FB"/>
<stop offset="0.4" stop-color="#328DF5"/>
<stop offset="0.58" stop-color="#297CEC"/>
<stop offset="0.75" stop-color="#1B63DF"/>
<stop offset="0.91" stop-color="#0A42CE"/>
<stop offset="1" stop-color="#002FC4"/>
</linearGradient>
<linearGradient id="paint8_linear_197_4109" x1="14.7506" y1="-0.266349" x2="18.7805" y2="7.21193" gradientUnits="userSpaceOnUse">
<stop stop-color="#002FC4"/>
<stop offset="0.03" stop-color="#0232C6"/>
<stop offset="0.48" stop-color="#206BE3"/>
<stop offset="0.82" stop-color="#328EF6"/>
<stop offset="1" stop-color="#3A9CFD"/>
</linearGradient>
<linearGradient id="paint9_linear_197_4109" x1="12.9169" y1="3.34612" x2="18.3152" y2="8.09445" gradientUnits="userSpaceOnUse">
<stop stop-color="#3A9CFD"/>
<stop offset="1" stop-color="#002FC4"/>
</linearGradient>
</defs>
</svg>
