<svg width="161" height="42" xmlns="http://www.w3.org/2000/svg"><g fill="none"><path d="M32.013 36.508h9.176v-11.37h2.713l6.628 11.37h10.615l-8.067-13.115c3.82-1.981 6.486-5.968 6.486-10.615C59.564 6.15 54.163.795 47.581.795H32.013v4.647C28.64 2.282 24.205.3 19.252.3 9.156.3.9 8.462.9 18.652s8.256 18.375 18.375 18.375c4.954 0 9.389-1.981 12.762-5.142v4.623h-.024zm-6.227-11.37a9.218 9.218 0 01-6.534 2.713c-5.048 0-9.176-4.128-9.176-9.176S14.204 9.5 19.252 9.5a9.162 9.162 0 016.534 2.713l6.227-6.227v25.38l-6.227-6.226zm15.403-8.02V8.816h5c2.289 0 4.176 1.887 4.176 4.176 0 2.288-1.887 4.128-4.175 4.128h-5.001z" fill="#00AE4D"/><path d="M129.009 34.15l-.685.943c1.038.92 2.43 1.533 4.223 1.533 2.1 0 3.774-1.132 3.774-3.137 0-1.58-.779-2.265-3.255-3.114l-.944-.33c-1.392-.472-2.146-.92-2.146-1.958 0-1.274 1.179-1.769 2.288-1.769 1.038 0 2.17.566 2.972 1.274l.731-.991c-1.038-.85-2.194-1.344-3.703-1.344-1.911 0-3.468 1.014-3.468 2.9 0 1.44.873 2.36 2.972 3.091l1.062.377c1.58.566 2.311.873 2.311 1.864 0 1.439-1.25 2.076-2.594 2.076-1.392 0-2.642-.59-3.538-1.416m-1.416 1.746l-.33-.967c-.66.4-1.297.59-2.076.59-1.085 0-1.604-.661-1.604-1.84v-7.195h3.916v-1.132h-3.916v-3.869h-1.226v12.196c0 1.84.92 2.948 2.76 2.948.92 0 1.721-.26 2.476-.731m-10.921.613v-6.581c.26-2.477 2.335-3.68 4.434-3.397v-1.25c-1.863-.283-3.585.66-4.434 2.288l-.024-2.217h-1.18v11.18h1.204v-.023zm-8.303-11.275c-3.138 0-5.685 2.571-5.685 5.708 0 3.138 2.547 5.709 5.685 5.709 3.137 0 5.708-2.571 5.708-5.709a5.698 5.698 0 00-5.708-5.708zm0 10.19c-2.477 0-4.482-2.028-4.482-4.505s2.005-4.506 4.482-4.506a4.505 4.505 0 110 9.011zm-12.431-10.19c-1.864 0-3.491 1.014-4.435 2.595V25.35H90.3v15.71h1.203v-7.03c.944 1.58 2.618 2.619 4.505 2.619 3.043 0 5.567-2.571 5.567-5.709 0-3.16-2.547-5.708-5.637-5.708zm0 10.19c-2.454 0-4.435-2.028-4.435-4.505s1.981-4.506 4.435-4.506c2.453 0 4.434 2.029 4.434 4.506 0 2.477-1.981 4.505-4.434 4.505zm-7.006-4.977c0-3.114-2.288-5.213-5.119-5.213-2.901 0-5.354 2.312-5.354 5.661 0 3.303 2.57 5.756 5.566 5.756 1.793 0 3.326-.755 4.411-2.123l-.872-.731c-.826 1.108-2.052 1.698-3.539 1.698-2.311 0-4.175-1.793-4.34-4.27h9.247v-.778zm-9.223-.33c.33-2.265 2.028-3.774 4.08-3.774 2.053 0 3.751 1.51 3.893 3.774h-7.973zm-5.827-.378c2.737-.424 4.364-2.406 4.364-4.717 0-2.76-1.887-4.789-5.33-4.789h-5.45v16.3h1.274v-6.7h3.633l4.6 6.7h1.556l-4.647-6.794zm-5.142-1.132v-7.17h4.152c2.57 0 4.057 1.438 4.057 3.585 0 1.91-1.297 3.585-4.104 3.585H68.74zm87.725-11.487v-6.582c.26-2.476 2.336-3.68 4.435-3.396V5.89c-1.863-.284-3.585.66-4.435 2.288l-.023-2.218h-1.18v11.181h1.203v-.023zm-2.595-6.063c0-3.113-2.287-5.213-5.118-5.213-2.901 0-5.355 2.312-5.355 5.661 0 3.303 2.572 5.756 5.567 5.756 1.793 0 3.326-.755 4.411-2.123l-.872-.731c-.826 1.109-2.053 1.698-3.539 1.698-2.311 0-4.175-1.793-4.34-4.27h9.247v-.778zm-9.222-.33c.33-2.264 2.028-3.774 4.08-3.774 2.053 0 3.75 1.51 3.892 3.774h-7.972zm-18.046.731c.048-2.948 1.534-4.505 3.61-4.505 1.745 0 2.9 1.109 2.877 3.114v7.053h1.203v-5.662c.047-2.948 1.534-4.505 3.61-4.505 1.745 0 2.9 1.109 2.877 3.114v7.053h1.203v-7.1c.024-2.619-1.439-4.2-3.963-4.2-1.792 0-3.302 1.062-3.963 2.666-.495-1.651-1.84-2.665-3.75-2.665-1.651 0-3.09.943-3.75 2.359V5.938h-1.204v11.18h1.203v-5.66h.047zm-4.222 5.662h1.203V5.96h-1.203v5.685c-.047 2.949-1.675 4.505-3.94 4.505-1.792 0-2.971-1.108-2.971-3.113V5.96h-1.203v7.1c0 2.619 1.486 4.199 4.057 4.199 1.84 0 3.397-.99 4.08-2.477v2.336h-.023zm-16.818-2.359l-.684.943c1.037.92 2.43 1.533 4.222 1.533 2.1 0 3.774-1.132 3.774-3.137 0-1.58-.778-2.264-3.255-3.113l-.944-.33c-1.391-.472-2.146-.92-2.146-1.959 0-1.273 1.18-1.769 2.288-1.769 1.038 0 2.17.566 2.972 1.274l.731-.99c-1.038-.85-2.193-1.345-3.703-1.345-1.91 0-3.468 1.014-3.468 2.901 0 1.44.873 2.36 2.972 3.09l1.062.378c1.58.566 2.312.872 2.312 1.863 0 1.44-1.25 2.076-2.595 2.076-1.392 0-2.642-.59-3.538-1.415m-10.049-3.303c.047-2.948 1.675-4.505 3.94-4.505 1.792 0 2.971 1.109 2.971 3.114v7.053h1.203v-7.1c0-2.619-1.486-4.2-4.057-4.2-1.84 0-3.397.991-4.08 2.477V5.938h-1.204v11.18h1.203v-5.66h.024zm-8.28-5.614c-3.137 0-5.684 2.571-5.684 5.709 0 3.137 2.547 5.708 5.684 5.708 3.138 0 5.709-2.571 5.709-5.708 0-3.138-2.571-5.709-5.709-5.709zm0 10.19c-2.476 0-4.481-2.028-4.481-4.505s2.005-4.505 4.481-4.505a4.505 4.505 0 110 9.01zm-7.524-2.783a6.942 6.942 0 01-5.52 2.69c-3.821 0-6.958-3.115-6.958-6.96 0-3.82 3.137-6.934 6.958-6.934 2.265 0 4.246 1.014 5.52 2.712l.967-.943A8.424 8.424 0 0074.189.748c-4.552 0-8.28 3.727-8.28 8.256 0 4.553 3.728 8.28 8.28 8.28a8.204 8.204 0 006.44-3.09l-.92-.944zm56.187 9.034h-.684v-.165h1.533v.165h-.684v2.005h-.165zm3.326-.164v2.17h-.165v-1.84l-.802 1.368h-.118l-.802-1.369v1.84h-.165v-2.17h.165l.873 1.51.873-1.51z" fill="#000"/></g></svg>