<svg id="Layer_1" data-name="Layer 1" xmlns="http://www.w3.org/2000/svg" viewBox="0 0 500 132"><defs><style>.cls-1,.cls-3{fill:#0075bb;}.cls-2,.cls-6,.cls-7{fill:#6ba743;}.cls-3{font-size:83.25px;font-family:UniNeue-Trial-BoldItalic, Uni Neue-Trial;font-weight:700;font-style:italic;letter-spacing:-0.02em;}.cls-4{letter-spacing:-0.03em;}.cls-5,.cls-6{letter-spacing:-0.03em;}.cls-7{letter-spacing:-0.03em;}.cls-8{letter-spacing:-0.03em;}.cls-9{letter-spacing:-0.03em;}.cls-10{letter-spacing:-0.05em;}</style></defs><path class="cls-1" d="M26.43,60.14A242.81,242.81,0,0,0,43.67,30a50.32,50.32,0,0,0,4.82-14s11,8.73,21.84,30.11c9.42,18.62,13.33,34.7,6,50.1a15.43,15.43,0,0,1-14.47,9,43.12,43.12,0,0,0-5.52-27.12C46.89,62.67,26.43,60.14,26.43,60.14Z"/><path class="cls-2" d="M0,67a28.29,28.29,0,0,1,11.49-3.67c6.44-.46,21.61.23,31.95,8.5,9.42,7.36,11.49,11.72,13.33,17.93a53.18,53.18,0,0,1,1.38,14.71s-10.57-.92-24.36-15.63A158.43,158.43,0,0,1,21.37,73.93s7.13,17.47,20,27.12,21.83,8.73,27.12,6.44c11.26-4.83,12.87-20.92,12.87-20.92s1.15,16.55-11,23a21.12,21.12,0,0,1-13.56,1.61A26.75,26.75,0,0,1,41.14,116C31,115.76,24.82,106.8,20.91,98.52c-3.44-7.58-7.35-18.39-10.57-23.44C5.52,67.49,0,67,0,67Z"/><text class="cls-3" transform="translate(85.6 92.2) scale(0.92 1)">B<tspan class="cls-4" x="49.53" y="0">l</tspan><tspan class="cls-5" x="70.6" y="0">ue</tspan><tspan class="cls-6" x="153.84" y="0">g</tspan><tspan class="cls-7" x="196.05" y="0">r</tspan><tspan class="cls-2" x="222.94" y="0">ass</tspan><tspan class="cls-8" x="336.57" y="0"> </tspan><tspan class="cls-9" x="351.81" y="0">C</tspan><tspan x="396.35" y="0">o</tspan><tspan class="cls-10" x="437.8" y="0">.</tspan></text></svg>